<?xml version="1.0" standalone="no"?>
<!DOCTYPE svg PUBLIC "-//W3C//DTD SVG 20010904//EN"
 "http://www.w3.org/TR/2001/REC-SVG-20010904/DTD/svg10.dtd">
<svg version="1.0" xmlns="http://www.w3.org/2000/svg"
 width="1184.000000pt" height="1280.000000pt" viewBox="0 0 1184.000000 1280.000000"
 preserveAspectRatio="xMidYMid meet">
<metadata>
Created by potrace 1.15, written by Peter Selinger 2001-2017
</metadata>
<g transform="translate(0.000000,1280.000000) scale(0.100000,-0.100000)"
fill="#000000" stroke="none">
<path d="M5760 12704 c-977 -643 -2150 -919 -3309 -778 -466 56 -930 183
-1375 375 -76 33 -140 59 -142 57 -6 -7 -130 -272 -182 -389 -369 -838 -605
-1725 -701 -2639 -39 -362 -46 -509 -45 -950 0 -438 10 -631 50 -980 190
-1683 845 -3255 1908 -4580 184 -230 554 -642 682 -760 27 -24 103 -96 169
-159 147 -140 414 -370 595 -512 718 -563 1513 -1013 2358 -1334 l153 -58 152
58 c2110 797 3859 2388 4857 4420 463 943 755 1953 859 2975 39 380 46 512 45
940 0 414 -7 577 -40 900 -95 931 -332 1830 -706 2679 -52 117 -176 382 -182
389 -2 2 -66 -24 -142 -57 -882 -381 -1833 -499 -2774 -345 -692 114 -1331
365 -1932 760 -70 46 -133 84 -140 84 -7 0 -78 -43 -158 -96z"/>
</g>
</svg>
